<?xml version="1.0" encoding="UTF-8"?>
<svg width="60px" height="60px" viewBox="0 0 60 60" version="1.1" xmlns="http://www.w3.org/2000/svg" xmlns:xlink="http://www.w3.org/1999/xlink">
    <!-- Generator: Sketch 49 (51002) - http://www.bohemiancoding.com/sketch -->
    <title>Page 1</title>
    <desc>Created with Sketch.</desc>
    <defs>
        <polygon id="path-1" points="0.326291667 0.0154166667 59.6008333 0.0154166667 59.6008333 59.3029167 0.326291667 59.3029167"></polygon>
    </defs>
    <g id="Page-1" stroke="none" stroke-width="1" fill="none" fill-rule="evenodd">
        <g id="Desktop-HD-Copy-3" transform="translate(-60.000000, -947.000000)">
            <g id="Group-9" transform="translate(60.000000, 947.000000)">
                <g id="Group-8">
                    <g id="Page-1">
                        <g id="Group-3" transform="translate(0.000000, 0.175833)">
                            <mask id="mask-2" fill="white">
                                <use xlink:href="#path-1"></use>
                            </mask>
                            <g id="Clip-2"></g>
                            <path d="M29.963375,0.0154166667 C25.9492083,0.0154166667 22.0979583,0.790833333 18.4212917,2.34166667 C14.8817083,3.84208333 11.743375,5.95541667 9.004625,8.69416667 C6.278375,11.4329167 4.15254167,14.5716667 2.664625,18.1108333 C1.10129167,21.7875 0.326291667,25.62625 0.326291667,29.6533333 C0.326291667,33.6675 1.10129167,37.5191667 2.664625,41.1829167 C4.15254167,44.7341667 6.278375,47.8733333 9.004625,50.6116667 C11.743375,53.35 14.8817083,55.4641667 18.4212917,56.9641667 C22.0975417,58.5154167 25.9487917,59.3029167 29.963375,59.3029167 C33.9900417,59.3029167 37.8292083,58.515 41.505875,56.9641667 C45.0450417,55.4641667 48.183375,53.35 50.9225417,50.6116667 C53.648375,47.8733333 55.774625,44.7345833 57.2625417,41.1829167 C58.825875,37.5191667 59.600875,33.6675 59.600875,29.6533333 C59.600875,25.62625 58.825875,21.7875 57.2625417,18.1108333 C55.774625,14.5716667 53.648375,11.4329167 50.9225417,8.69416667 C48.1837917,5.95541667 45.0454583,3.84208333 41.505875,2.34166667 C37.8292083,0.790833333 33.9900417,0.0154166667 29.963375,0.0154166667" id="Fill-1" fill="#FFFFFF" mask="url(#mask-2)"></path>
                        </g>
                        <path d="M43.2442083,9.89541667 C43.5442083,9.85791667 43.7192083,9.7325 43.7942083,9.55791667 C43.8817083,9.345 43.8317083,9.1325 43.6562917,8.92 C42.2562917,6.54375 39.092125,5.08125 34.139625,4.55541667 C32.0762917,4.33041667 29.863375,4.43083333 27.4875417,4.85541667 C24.9737917,5.29333333 22.7979583,5.99333333 20.959625,6.98166667 C16.3829583,9.445 13.7567083,12.70875 13.0687917,16.7854167 C12.968375,17.1604167 12.993375,17.42375 13.118375,17.5858333 C13.2562917,17.7483333 13.4817083,17.7733333 13.7937917,17.6729167 C19.9092083,15.6220833 24.6487917,14.1466667 28.0000417,13.24625 C33.2900417,11.85875 38.367125,10.7333333 43.2442083,9.89541667" id="Fill-4" fill="#FEBE10"></path>
                        <path d="M38.60475,2.9425 C35.8285,2.04208333 33.01475,1.60416667 30.1885,1.60416667 C26.0743333,1.60416667 22.1976667,2.3925 18.5839167,3.98 C15.1701667,5.46833333 12.181,7.56916667 9.59266667,10.2704167 C7.1035,12.8841667 5.16558333,15.8729167 3.80266667,19.2366667 C2.42725,22.6004167 1.75141667,26.0516667 1.75141667,29.60375 C1.75141667,33.4304167 2.46433333,37.0820833 3.90266667,40.5829167 C5.30308333,43.9966667 7.26641667,47.0104167 9.82975,49.6370833 C12.3939167,52.2875 15.3701667,54.3383333 18.7339167,55.7895833 C22.2476667,57.3154167 25.9489167,58.0658333 29.8514167,58.0658333 C36.6414167,58.0658333 42.5689167,56.0141667 47.6339167,51.8875 C49.6214167,50.2745833 51.3726667,48.39875 52.8985,46.28625 C54.1864167,44.4975 55.1993333,42.6841667 55.9376667,40.87125 L51.1976667,38.2945833 C49.19725,42.7966667 46.421,46.36 42.8693333,48.9741667 C39.10475,51.7379167 34.841,53.1508333 30.1014167,53.22625 C26.58725,53.2758333 23.2735,52.7258333 20.17225,51.5629167 C17.146,50.4375 14.48225,48.7991667 12.181,46.63625 L9.44266667,47.81125 L9.44266667,43.5720833 C7.91683333,41.52125 6.76683333,39.2704167 5.966,36.7816667 C5.14058333,34.2183333 4.72808333,31.5041667 4.72808333,28.6533333 C4.72808333,24.9891667 5.40308333,21.5254167 6.75391667,18.2491667 C8.06683333,15.0604167 9.94225,12.2591667 12.381,9.84583333 C14.84475,7.39458333 17.7089167,5.51916667 20.9843333,4.19333333 C24.386,2.83041667 28.0376667,2.1425 31.9268333,2.1425 C34.0151667,2.14208333 36.2535,2.41708333 38.60475,2.9425" id="Fill-6" fill="#0061A9"></path>
                        <path d="M52.710375,22.3254583 C52.5232917,21.9254583 52.2224583,21.6504583 51.7982917,21.4750417 C51.1349583,21.2250417 50.4099583,21.062125 49.584125,21.012125 C48.7712083,20.962125 47.9582917,21.012125 47.132875,21.187125 C45.557875,21.499625 44.2070417,22.1750417 43.0937083,23.2129583 C41.4807917,24.7137917 40.667875,26.752125 40.667875,29.3529583 C40.667875,31.5292083 41.3812083,33.142125 42.806625,34.192125 C44.0199583,35.0804583 45.5074583,35.4304583 47.2587083,35.2300417 C49.234125,35.0054583 50.7732917,34.342125 51.8857917,33.242125 C52.5232917,32.617125 52.8357917,31.7542083 52.8482917,30.6537917 C52.874125,29.9037917 52.874125,28.3154583 52.8482917,25.9142083 L46.9332917,27.2025417 L46.9332917,28.5779583 C46.9457917,29.5787917 47.4087083,29.990875 48.346625,29.803375 L49.0974583,29.615875 L49.1099583,30.7417083 C49.1220417,30.8412917 49.084125,30.9542083 48.9720417,31.079625 C48.759125,31.3542083 48.3332917,31.5417083 47.7082917,31.6667083 C46.757875,31.8042083 46.0449583,31.6167083 45.557875,31.0667083 C45.0949583,30.5537917 44.8570417,29.740875 44.8445417,28.653375 C44.870375,27.5654583 45.1574583,26.6650417 45.7199583,25.964625 C46.232875,25.3267083 46.8957917,24.9017083 47.7337083,24.7142083 C48.4712083,24.5392083 49.171625,24.4892083 49.8345417,24.5767083 L51.0599583,24.8142083 C51.5349583,24.889625 51.9224583,24.777125 52.260375,24.5142083 C52.547875,24.2642083 52.747875,23.9262917 52.8357917,23.5142083 C52.9232917,23.088375 52.8737083,22.7004583 52.710375,22.3254583" id="Fill-8" fill="#ED1C2E"></path>
                        <path d="M36.7159167,24.48875 C36.3663333,24.95125 36.1909167,25.5766667 36.1909167,26.4020833 L36.1784167,30.57875 C34.603,28.6029167 33.28925,27.0895833 32.26425,26.0516667 C31.7013333,25.5016667 30.9759167,25.3891667 30.0634167,25.7141667 L28.0375833,26.3266667 L28.0375833,40.27 L30.0009167,39.5945833 C30.7259167,39.3445833 31.2384167,38.9816667 31.5509167,38.5316667 C31.8513333,38.0816667 31.98925,37.4816667 31.98925,36.7183333 L31.9638333,31.90375 L36.178,36.7679167 C36.8038333,37.4058333 37.5788333,37.59375 38.5163333,37.31875 C38.94175,37.1933333 39.2913333,36.9558333 39.56675,36.59375 C39.86675,36.2179167 40.0171667,35.7808333 40.0288333,35.2804167 L40.0288333,23.2008333 C39.3038333,23.3504167 38.6413333,23.5133333 38.028,23.6883333 C37.45425,23.85125 37.0163333,24.11375 36.7159167,24.48875" id="Fill-10" fill="#ED1C2E"></path>
                        <path d="M24.4486667,27.3899167 C23.73575,27.6524167 23.21075,28.0149167 22.88575,28.4524167 C22.5103333,28.9778333 22.3353333,29.71575 22.3353333,30.6911667 L22.32325,42.2711667 L24.5990833,41.45825 C25.387,41.1578333 25.937,40.79575 26.262,40.3328333 C26.587,39.8828333 26.7499167,39.2453333 26.7499167,38.4315833 L26.7624167,26.6395 C25.8990833,26.8899167 25.1365833,27.1399167 24.4486667,27.3899167" id="Fill-12" fill="#ED1C2E"></path>
                        <path d="M14.257,31.304125 L10.0428333,33.0549583 L10.0178333,46.9487083 L12.9940833,45.697875 C13.3940833,45.597875 13.707,45.347875 13.9315833,44.9849583 C14.157,44.6349583 14.257,44.1849583 14.2445,43.6224583 L14.2445,39.2074583 L17.5711667,42.746625 C17.9836667,43.159125 18.4711667,43.409125 19.0336667,43.471625 C19.6840833,43.5595417 20.2840833,43.371625 20.8345,42.9337083 C21.3345,42.5212083 21.597,41.9962083 21.622,41.3582917 C21.6345,40.7707917 21.4845,40.295375 21.147,39.920375 L18.10825,36.881625 L21.222,31.9670417 C21.5095,31.4920417 21.5849167,31.004125 21.447,30.516625 C21.297,30.0037083 20.9595,29.6287083 20.4465833,29.4037083 C19.9086667,29.1537083 19.3711667,29.1282917 18.8711667,29.3162083 C18.43325,29.4787083 18.0961667,29.7412083 17.85825,30.1162083 L14.2690833,36.2187083 L14.257,31.304125 Z" id="Fill-14" fill="#ED1C2E"></path>
                        <path d="M48.6458333,36.3435833 C48.49625,36.1806667 48.23375,36.144 47.87125,36.244 C43.6945833,37.2198333 38.9045833,38.5573333 33.49,40.25775 C27.675,42.0831667 22.9604167,43.7719167 19.3591667,45.32275 L18.99625,45.49775 C18.9091667,45.5598333 18.83375,45.63525 18.79625,45.7473333 C18.68375,45.98525 18.74625,46.2235833 18.9841667,46.4735833 C19.3966667,46.9731667 20.0845833,47.4615 21.06,47.9356667 C22.1104167,48.4360833 23.3108333,48.8498333 24.68625,49.1623333 C28.0375,49.8994167 31.40125,49.8619167 34.7779167,49.049 C39.5675,47.899 43.28125,45.7235833 45.9204167,42.5215 C46.7958333,41.4456667 47.50875,40.3081667 48.0583333,39.1198333 C48.3966667,38.39525 48.63375,37.7444167 48.77125,37.169 C48.84625,36.7819167 48.8091667,36.5069167 48.6458333,36.3435833" id="Fill-16" fill="#FEBE10"></path>
                        <path d="M11.63125,26.7020833 C11.91875,26.8520833 12.06875,27.1145833 12.06875,27.515 C12.09375,28.2154167 11.7308333,28.7283333 11.0183333,29.0533333 L10.4429167,29.3158333 L10.4429167,26.8520833 C10.9304167,26.6025 11.3308333,26.5520833 11.63125,26.7020833 M10.8929167,25.0891667 L10.4175,25.2891667 L10.4175,23.15125 C10.8304167,22.9258333 11.1804167,22.8758333 11.4558333,22.9633333 C11.7183333,23.0633333 11.8558333,23.28875 11.8433333,23.66375 C11.8433333,24.30125 11.5183333,24.7766667 10.8929167,25.0891667 M13.5191667,21.0875 C12.85625,20.7375 12.0058333,20.7375 10.9679167,21.125 C10.4425,21.3125 9.405,21.725 7.84166667,22.3629167 L7.85416667,32.4920833 L11.5808333,30.90375 C12.60625,30.4783333 13.3691667,30.0033333 13.8691667,29.4904167 C14.4945833,28.84 14.7945833,28.0775 14.7816667,27.1770833 C14.7695833,26.6766667 14.6070833,26.2516667 14.2691667,25.9016667 C13.9566667,25.56375 13.56875,25.35125 13.1058333,25.2766667 C13.99375,24.56375 14.43125,23.7258333 14.43125,22.7504167 C14.4316667,21.9754167 14.1191667,21.425 13.5191667,21.0875" id="Fill-18" fill="#ED1C2E"></path>
                        <path d="M21.8725417,18.6236667 C21.8725417,18.2115833 21.7479583,17.9361667 21.4850417,17.7861667 C21.2600417,17.6486667 20.947125,17.6361667 20.584625,17.7486667 C20.1967083,17.8611667 19.7842083,17.9986667 19.3342083,18.1740833 L19.3342083,24.4640833 C19.3092083,25.402 19.0217083,25.9274167 18.4467083,26.0774167 C18.1592083,26.1399167 17.9342083,26.0899167 17.7837917,25.9274167 C17.6462917,25.777 17.5717083,25.5274167 17.5717083,25.2024167 L17.558375,20.0495 C17.558375,19.637 17.4329583,19.3495 17.1829583,19.1990833 C16.9454583,19.0495 16.6454583,19.0495 16.2704583,19.1615833 L14.994625,19.6240833 L14.994625,25.8645 C14.9825417,26.9149167 15.307125,27.6774167 15.9700417,28.1278333 C16.645875,28.60325 17.5329583,28.67825 18.6212917,28.35325 C19.6837917,28.0399167 20.4592083,27.5653333 20.959625,26.9649167 C21.5600417,26.2390833 21.8600417,25.2265833 21.872125,23.91325 L21.872125,18.6236667 L21.8725417,18.6236667 Z" id="Fill-20" fill="#ED1C2E"></path>
                        <path d="M40.518,15.9605 L40.518,14.5475833 L42.6805,14.0971667 C43.1938333,13.9971667 43.4563333,13.6346667 43.4563333,13.03425 L43.4563333,11.9584167 C41.668,12.2588333 39.8421667,12.6338333 37.99175,13.0588333 L37.95425,22.3005 C39.9796667,21.8134167 41.5305,21.463 42.6434167,21.2250833 C43.2438333,21.0871667 43.5563333,20.6871667 43.5563333,20.0246667 L43.5563333,18.9488333 L40.5175833,19.61175 L40.5300833,17.8234167 L42.4309167,17.4238333 C42.9559167,17.2984167 43.2184167,16.9734167 43.2184167,16.423 L43.20675,15.3975833 L40.518,15.9605 Z" id="Fill-22" fill="#ED1C2E"></path>
                        <path d="M25.1237083,20.85 L25.1237083,18.2116667 C26.099125,17.84875 26.5995417,18.06125 26.6120417,18.8491667 C26.6245417,19.6741667 26.124125,20.3370833 25.1237083,20.85 Z M22.5732917,26.64 L24.0862083,26.1275 C24.774125,25.8520833 25.111625,25.4020833 25.124125,24.7516667 L25.136625,22.2754167 L27.3124583,24.5391667 C27.637875,24.8516667 28.000375,24.9895833 28.425375,24.9645833 C28.7632917,24.9266667 29.0382917,24.8141667 29.2632917,24.60125 C29.5387083,24.35125 29.6762083,24.02625 29.6762083,23.6383333 C29.6637083,23.2629167 29.5387083,22.9508333 29.2882917,22.7004167 L27.6382917,21.1245833 C28.7012083,20.2495833 29.2262083,19.23625 29.2387083,18.1108333 C29.2387083,17.3229167 28.9387083,16.7354167 28.3257917,16.36 C27.7007917,15.9725 26.900375,15.885 25.9374583,16.11 C25.1120417,16.2975 23.986625,16.6479167 22.5737083,17.1354167 L22.5737083,26.64 L22.5732917,26.64 Z" id="Fill-24" fill="#ED1C2E"></path>
                        <path d="M46.5954583,15.7354583 L46.5829583,13.2717083 C47.5462917,13.072125 48.045875,13.309625 48.058375,13.997125 C48.058375,14.784625 47.570875,15.3600417 46.5954583,15.7354583 M49.7717083,11.7837917 C49.1717083,11.320875 48.3962917,11.1462917 47.470875,11.2712917 L44.119625,11.8337917 L44.119625,20.9379583 L45.5075417,20.6750417 C46.2200417,20.512125 46.5829583,20.0875417 46.5954583,19.374625 L46.5954583,17.1487917 L48.7342083,19.662125 C48.9467083,19.899625 49.2087917,20.037125 49.4967083,20.0875417 C49.8342083,20.149625 50.159625,20.0875417 50.4717083,19.8875417 C50.8100417,19.674625 50.997125,19.3750417 51.0350417,18.999625 C51.0725417,18.6242083 50.9725417,18.2992083 50.7225417,18.0367083 L49.0717083,16.1862917 C50.097125,15.498375 50.6225417,14.6354583 50.6225417,13.5975417 C50.6342083,12.8212917 50.347125,12.2337917 49.7717083,11.7837917" id="Fill-26" fill="#ED1C2E"></path>
                        <path d="M37.3165,15.035 C37.329,14.5970833 37.1415,14.26 36.7535833,14.0220833 C36.3285833,13.7841667 35.7281667,13.6841667 34.9281667,13.6970833 C33.2273333,13.7591667 31.8894167,14.3470833 30.914,15.4725 C30.0135833,16.5104167 29.5635833,17.82375 29.5635833,19.4241667 C29.5635833,20.9375 30.0135833,22.0629167 30.9010833,22.8008333 C31.7260833,23.4883333 32.8019167,23.71375 34.0898333,23.4758333 C35.1898333,23.2629167 36.0535833,22.8758333 36.6785833,22.3129167 C37.1406667,21.9129167 37.3660833,21.375 37.3660833,20.7120833 L37.3660833,17.1229167 L33.5765,17.9733333 L33.5765,19.02375 C33.5765,19.2741667 33.664,19.4616667 33.8265,19.5991667 C33.9898333,19.7366667 34.1894167,19.7866667 34.4269167,19.7366667 L34.9773333,19.6116667 L34.9894167,20.6495833 C34.9894167,20.8625 34.864,21.025 34.6015,21.15 C34.3515,21.2754167 34.0515,21.3375 33.7260833,21.325 C32.7885833,21.3125 32.32525,20.6245833 32.3006667,19.2616667 C32.31275,18.4116667 32.5131667,17.7233333 32.8760833,17.1733333 C33.239,16.6608333 33.7006667,16.3354167 34.289,16.1729167 C34.664,16.0854167 35.1523333,16.0733333 35.7644167,16.1479167 C36.24025,16.2354167 36.61525,16.1604167 36.89025,15.9604167 C37.1669167,15.7604167 37.304,15.4475 37.3165,15.035" id="Fill-28" fill="#ED1C2E"></path>
                        <path d="M16.1574167,15.46 C16.2824167,15.3720833 16.3453333,15.2225 16.3699167,15.0345833 C16.7953333,13.42125 17.6078333,11.8329167 18.80825,10.295 C19.9336667,8.85666667 21.1595,7.73125 22.4974167,6.91833333 C20.5840833,7.75625 18.89575,9.09458333 17.4203333,10.9329167 C16.8203333,11.6958333 16.3328333,12.4458333 15.957,13.19625 C15.607,13.9091667 15.407,14.4970833 15.357,14.9845833 C15.357,15.1595833 15.3945,15.2970833 15.482,15.41 C15.5690833,15.51 15.682,15.5595833 15.8195,15.5720833 C15.9449167,15.585 16.0574167,15.5475 16.1574167,15.46" id="Fill-30" fill="#FFFFFF"></path>
                        <path d="M39.792875,8.41958333 C39.8049583,8.00708333 39.5299583,7.58166667 38.9920417,7.14416667 C38.4795417,6.73166667 37.766625,6.35625 36.879125,6.00625 C35.9532917,5.66875 34.977875,5.43125 33.927875,5.26833333 C32.8024583,5.10625 31.701625,5.05583333 30.6387083,5.14375 C32.7395417,5.29333333 34.4907917,5.70625 35.8912083,6.41916667 C36.504125,6.71916667 36.9787083,7.04416667 37.316625,7.39416667 C37.6412083,7.73166667 37.8170417,8.05708333 37.8170417,8.35708333 C37.829125,8.7325 37.6795417,9.0825 37.379125,9.3825 C37.1037083,9.695 36.7287083,9.92041667 36.2912083,10.0579167 L37.766625,9.7075 C38.2670417,9.595 38.6295417,9.495 38.8674583,9.395 C39.480375,9.1825 39.780375,8.8575 39.792875,8.41958333" id="Fill-32" fill="#FFFFFF"></path>
                        <path d="M46.08275,39.5320833 C46.2085833,39.27 46.2198333,39.0325 46.1331667,38.8320833 C46.0710833,38.645 45.9335833,38.5195833 45.7323333,38.4570833 C45.53275,38.395 45.3448333,38.4195833 45.1573333,38.5195833 C44.9319167,38.645 44.7823333,38.8566667 44.6823333,39.1566667 C44.0944167,40.6825 43.2681667,42.0829167 42.2060833,43.37125 C40.95525,44.9091667 39.4419167,46.1729167 37.6794167,47.1725 C39.4673333,46.4725 41.0685833,45.51 42.4685833,44.2841667 C44.0319167,42.9216667 45.2323333,41.34625 46.08275,39.5320833" id="Fill-34" fill="#FFFFFF"></path>
                        <polygon id="Fill-36" fill="#ED1C2E" points="55.2364167 38.3947917 54.2985 38.3947917 54.2985 38.5447917 54.661 38.5447917 54.661 39.270625 54.8989167 39.270625 54.8989167 38.5447917 55.2364167 38.5447917"></polygon>
                        <polygon id="Fill-38" fill="#ED1C2E" points="55.599375 38.5575417 55.811875 39.2704583 56.049375 39.2704583 56.2622917 38.5575417 56.2622917 39.2704583 56.4997917 39.2704583 56.4997917 38.394625 56.149375 38.394625 55.9372917 39.069625 55.711875 38.394625 55.361875 38.394625 55.361875 39.2704583 55.599375 39.2704583"></polygon>
                    </g>
                </g>
            </g>
        </g>
    </g>
</svg>