<?xml version="1.0" encoding="UTF-8"?>
<svg width="24px" height="24px" viewBox="0 0 24 24" version="1.1" xmlns="http://www.w3.org/2000/svg" xmlns:xlink="http://www.w3.org/1999/xlink">
    <!-- Generator: Sketch 49 (51002) - http://www.bohemiancoding.com/sketch -->
    <title>Skype</title>
    <desc>Created with Sketch.</desc>
    <defs></defs>
    <g id="Page-1" stroke="none" stroke-width="1" fill="none" fill-rule="evenodd">
        <g id="Desktop-HD-Copy-3" transform="translate(-1056.000000, -1553.000000)" fill="#FFFFFF">
            <g id="Group-11" transform="translate(0.000000, 1529.000000)">
                <g id="Group-10" transform="translate(936.000000, 24.000000)">
                    <g id="Skype" transform="translate(120.000000, 0.000000)">
                        <path d="M12,24 C5.372583,24 0,18.627417 0,12 C0,5.372583 5.372583,0 12,0 C18.627417,0 24,5.372583 24,12 C24,18.627417 18.627417,24 12,24 Z M18.0319849,13.3587898 C18.1245532,12.941842 18.1727187,12.5100562 18.1727187,12.0664 C18.1727187,8.74268823 15.4400753,6.04736568 12.0677328,6.04736568 C11.7125118,6.04736568 11.364064,6.07778357 11.0238946,6.13565177 C10.478269,5.79660349 9.83254939,5.6 9.14092192,5.6 C7.18494826,5.6 5.6,7.16244131 5.6,9.09138121 C5.6,9.73535037 5.77761054,10.3377731 6.08617121,10.8571031 C6.0056444,11.2473425 5.96274694,11.6524199 5.96274694,12.0664 C5.96274694,15.3915957 8.69614299,18.0861763 12.0677328,18.0861763 C12.450047,18.0861763 12.8233302,18.051307 13.1860771,17.9852779 C13.6850423,18.2493943 14.2539981,18.4 14.8598307,18.4 C16.8150517,18.4 18.4,16.8368168 18.4,14.9093607 C18.4,14.3521938 18.2675447,13.8261868 18.0319849,13.3587898 Z" id="Combined-Shape"></path>
                        <path d="M15.1992474,14.9434881 C14.9170273,15.3381789 14.5000941,15.6497769 13.9582314,15.870863 C13.4231421,16.0904654 12.7819379,16.2024923 12.0511759,16.2024923 C11.174412,16.2024923 10.4391345,16.0504028 9.86491063,15.7499333 C9.45475071,15.5318148 9.11683913,15.2365386 8.86020696,14.87004 C8.60056444,14.5020576 8.4696143,14.1363009 8.4696143,13.7824147 C8.4696143,13.5628123 8.55540922,13.3714021 8.72398871,13.2148612 C8.89106303,13.0590622 9.10555033,12.9811627 9.36142992,12.9811627 C9.57064911,12.9811627 9.75202258,13.0427404 9.89877705,13.1651539 C10.0395108,13.283116 10.1599247,13.4574625 10.2570085,13.6807744 C10.365381,13.9256013 10.4827846,14.1318495 10.6069614,14.2928418 C10.7273754,14.4501246 10.8997178,14.5814409 11.1194732,14.684565 C11.3407338,14.7869472 11.6395108,14.840364 12.0060207,14.840364 C12.5110066,14.840364 12.9249294,14.7335304 13.2357479,14.5243146 C13.5405456,14.3202921 13.6880527,14.0739813 13.6880527,13.77277 C13.6880527,13.5361039 13.6105362,13.3491451 13.4524929,13.2022489 C13.2854186,13.0494175 13.0664158,12.9307135 12.8007526,12.8476207 C12.523048,12.7630441 12.1467545,12.6703066 11.6809031,12.5738596 C11.0464722,12.4403176 10.5083725,12.2822929 10.0809031,12.1020112 C9.64289746,11.918762 9.28993415,11.6642903 9.0317968,11.3460152 C8.76989652,11.0218049 8.63668862,10.6159856 8.63668862,10.138944 C8.63668862,9.68490118 8.77591722,9.2746305 9.05136406,8.92148612 C9.32380056,8.57056744 9.72267168,8.29606445 10.2366886,8.10984756 C10.7431797,7.92511447 11.3452493,7.83163508 12.0278457,7.83163508 C12.5727187,7.83163508 13.0521167,7.89395467 13.4524929,8.01711007 C13.855127,8.14026546 14.1937912,8.30645105 14.460207,8.51195734 C14.7288805,8.71968933 14.9290687,8.94003362 15.0539981,9.1700226 C15.1804327,9.40223729 15.2451552,9.63296818 15.2451552,9.85628007 C15.2451552,10.0714311 15.1608655,10.2672926 14.9945437,10.4371877 C14.8274694,10.6093085 14.6159925,10.6961108 14.3676388,10.6961108 C14.1418627,10.6961108 13.9642521,10.6412102 13.842333,10.5343766 C13.7279398,10.4342201 13.609031,10.2784211 13.4773283,10.0558512 C13.3253057,9.77096157 13.1409219,9.54616588 12.929445,9.38739929 C12.7239887,9.2330841 12.3815616,9.15592651 11.9096896,9.15592651 C11.4731891,9.15592651 11.1164628,9.2419869 10.8523048,9.41336579 C10.5979304,9.57732568 10.4737535,9.76651017 10.4737535,9.99056396 C10.4737535,10.1270736 10.5136406,10.242068 10.5964252,10.3399988 C10.6822201,10.4453486 10.8048918,10.5358604 10.9599247,10.613018 C11.1202258,10.6924013 11.2857949,10.7562047 11.4513641,10.8007187 C11.6206961,10.8474584 11.905174,10.9164551 12.2957667,11.0054831 C12.7902164,11.1093491 13.2440263,11.2273112 13.6451552,11.3541761 C14.0523048,11.4817829 14.4030103,11.6390657 14.6904986,11.8237988 C14.9825024,12.0114994 15.2135466,12.251875 15.3783631,12.5397322 C15.5431797,12.8298151 15.6267168,13.1859271 15.6267168,13.6006492 C15.6267168,14.0962383 15.4822201,14.5480554 15.1992474,14.9434881 L15.1992474,14.9434881 L15.1992474,14.9434881 Z" id="s"></path>
                    </g>
                </g>
            </g>
        </g>
    </g>
</svg>