<?xml version="1.0" encoding="UTF-8"?>
<svg width="24px" height="24px" viewBox="0 0 24 24" version="1.1" xmlns="http://www.w3.org/2000/svg" xmlns:xlink="http://www.w3.org/1999/xlink">
    <!-- Generator: Sketch 49 (51002) - http://www.bohemiancoding.com/sketch -->
    <title>Combined Shape</title>
    <desc>Created with Sketch.</desc>
    <defs></defs>
    <g id="Page-1" stroke="none" stroke-width="1" fill="none" fill-rule="evenodd">
        <g id="Desktop-HD-Copy-3" transform="translate(-977.000000, -1553.000000)" fill="#FFFFFF">
            <g id="Group-11" transform="translate(0.000000, 1529.000000)">
                <g id="Group-10" transform="translate(936.000000, 24.000000)">
                    <g id="Telegram" transform="translate(41.000000, 0.000000)">
                        <path d="M10.0041715,14.4411267 L9.8,17.5 C10.1,17.5 10.23255,17.3628 10.4,17.2 L11.8413553,15.7984621 L14.84,18.0139 C15.39185,18.31839 15.79014,18.16074 15.9276,17.50155 L17.8961,8.22525 C18.09764,7.41723 17.58809,7.05075 17.06016,7.29043 L5.50116,11.74753 C4.71215,12.064 4.71675,12.50419 5.35734,12.70033 L8.32364,13.62616 L15.19094,9.29366 C15.51513,9.09707 15.81267,9.202761 15.56846,9.4195 L10.004,14.441 Z M12,24 C5.372583,24 0,18.627417 0,12 C0,5.372583 5.372583,0 12,0 C18.627417,0 24,5.372583 24,12 C24,18.627417 18.627417,24 12,24 Z" id="Combined-Shape"></path>
                    </g>
                </g>
            </g>
        </g>
    </g>
</svg>